<svg xmlns="http://www.w3.org/2000/svg" width="24" height="24" viewBox="0 0 124 124" fill="none"><rect width="124" height="124" rx="24" fill="#F97316"></rect><path d="M19.375 36.782v63.843a4 4 0 0 0 4 4h63.843c3.564 0 5.348-4.309 2.829-6.828L26.203 33.953c-2.52-2.52-6.828-.735-6.828 2.829Z" fill="#fff"></path><circle cx="63.211" cy="37.539" r="18.164" fill="#000"></circle><rect opacity="0.4" x="81.133" y="80.72" width="17.569" height="17.388" rx="4" transform="rotate(-45 81.133 80.72)" fill="#FDBA74"></rect></svg>
<svg width="16" height="16" fill="none" xmlns="http://www.w3.org/2000/svg"><path d="M9.474 9.474 15.2 15.2m-4.32-9.12a4.8 4.8 0 1 1-9.6 0 4.8 4.8 0 0 1 9.6 0Z" stroke="#566B76" stroke-width="1.2"></path></svg>
<svg width="16" height="16" fill="none" xmlns="http://www.w3.org/2000/svg"><path opacity="0.4" d="M2 6h8v5H7l-3 2v-2H2V6Z" fill="#6E7687" stroke="#6E7687" stroke-width="1.5" stroke-linecap="round" stroke-linejoin="round"></path><path d="M14 3H6v5h3l3 2V8h2V3Z" fill="#6E7687" stroke="#6E7687" stroke-width="1.5" stroke-linecap="round" stroke-linejoin="round"></path></svg>
<svg width="4" height="16" fill="none" xmlns="http://www.w3.org/2000/svg"><mask id="burger_svg__a" fill="#fff"><path fill-rule="evenodd" clip-rule="evenodd" d="M3.44 2.24a1.44 1.44 0 1 1-2.88 0 1.44 1.44 0 0 1 2.88 0Zm0 5.76A1.44 1.44 0 1 1 .56 8a1.44 1.44 0 0 1 2.88 0ZM2 15.2a1.44 1.44 0 1 0 0-2.88 1.44 1.44 0 0 0 0 2.88Z"></path></mask><path fill-rule="evenodd" clip-rule="evenodd" d="M3.44 2.24a1.44 1.44 0 1 1-2.88 0 1.44 1.44 0 0 1 2.88 0Zm0 5.76A1.44 1.44 0 1 1 .56 8a1.44 1.44 0 0 1 2.88 0ZM2 15.2a1.44 1.44 0 1 0 0-2.88 1.44 1.44 0 0 0 0 2.88Z" fill="currentColor"></path><path d="M2 4.68a2.44 2.44 0 0 0 2.44-2.44h-2a.44.44 0 0 1-.44.44v2ZM-.44 2.24A2.44 2.44 0 0 0 2 4.68v-2a.44.44 0 0 1-.44-.44h-2ZM2-.2A2.44 2.44 0 0 0-.44 2.24h2A.44.44 0 0 1 2 1.8v-2Zm2.44 2.44A2.44 2.44 0 0 0 2-.2v2a.44.44 0 0 1 .44.44h2ZM2 10.44A2.44 2.44 0 0 0 4.44 8h-2a.44.44 0 0 1-.44.44v2ZM-.44 8A2.44 2.44 0 0 0 2 10.44v-2A.44.44 0 0 1 1.56 8h-2ZM2 5.56A2.44 2.44 0 0 0-.44 8h2A.44.44 0 0 1 2 7.56v-2ZM4.44 8A2.44 2.44 0 0 0 2 5.56v2a.44.44 0 0 1 .44.44h2Zm-2 5.76a.44.44 0 0 1-.44.44v2a2.44 2.44 0 0 0 2.44-2.44h-2ZM2 13.32a.44.44 0 0 1 .44.44h2A2.44 2.44 0 0 0 2 11.32v2Zm-.44.44a.44.44 0 0 1 .44-.44v-2a2.44 2.44 0 0 0-2.44 2.44h2Zm.44.44a.44.44 0 0 1-.44-.44h-2A2.44 2.44 0 0 0 2 16.2v-2Z" fill="currentColor" mask="url(#burger_svg__a)"></path></svg>
<svg width="32" height="32" fill="none" xmlns="http://www.w3.org/2000/svg" transform="scale(-1 1)"><path d="M17 21a5 5 0 1 0-5-5v2m0 0 2-2m-2 2-2-2" stroke="#C7CAD1" stroke-width="1.5" stroke-linecap="round" stroke-linejoin="round"></path></svg>
<svg width="32" height="32" fill="none" xmlns="http://www.w3.org/2000/svg"><path opacity="0.4" d="M21 22V10l-10 6 10 6Z" fill="#C7CAD1" stroke="#C7CAD1" stroke-width="1.5" stroke-linecap="round" stroke-linejoin="round"></path><path d="M9 16h14" stroke="#C7CAD1" stroke-width="1.5" stroke-linecap="round" stroke-linejoin="round"></path></svg>
<svg width="16" height="16" fill="none" xmlns="http://www.w3.org/2000/svg"><path opacity="0.4" d="M2 13h12L8 3 2 13Z" fill="#C7CAD1" stroke="#C7CAD1" stroke-width="1.5" stroke-linecap="round" stroke-linejoin="round"></path><path d="M8 1v14" stroke="#C7CAD1" stroke-width="1.5" stroke-linecap="round" stroke-linejoin="round"></path></svg>
<svg width="16" height="16" fill="none" xmlns="http://www.w3.org/2000/svg"><g clip-path="url(#resize_svg__a)" stroke="#C7CAD1" stroke-width="1.5" stroke-linecap="round" stroke-linejoin="round"><path opacity="0.4" d="M4 4h8v8H4V4Z" fill="#C7CAD1"></path><path d="M4 4h8v8M4 4v8h8M4 4V1m0 3H1m11 8h3m-3 0v3"></path></g><defs><clipPath id="resize_svg__a"><path fill="#fff" d="M0 0h16v16H0z"></path></clipPath></defs></svg>
<svg width="17" height="13" fill="none" xmlns="http://www.w3.org/2000/svg"><path d="M9.118 1.5 14 6.5l-4.882 5M14 6.5H1" stroke="#00B277" stroke-width="2"></path></svg>
<svg width="16" height="16" fill="none" xmlns="http://www.w3.org/2000/svg"><g stroke="currentColor" stroke-width="1.5" stroke-linecap="round" stroke-linejoin="round" clip-path="url(#options_svg__a)"><path d="M3.29 9.91a1.05 1.05 0 0 1-.21 1.157l-.037.038a1.272 1.272 0 1 0 1.8 1.801l.039-.038a1.05 1.05 0 0 1 1.158-.21 1.05 1.05 0 0 1 .636.961v.108a1.273 1.273 0 0 0 2.546 0v-.057a1.05 1.05 0 0 1 .687-.96 1.05 1.05 0 0 1 1.158.21l.038.037a1.272 1.272 0 0 0 2.175-.9 1.272 1.272 0 0 0-.374-.9l-.038-.039a1.05 1.05 0 0 1-.21-1.158 1.05 1.05 0 0 1 .961-.636h.108a1.273 1.273 0 0 0 0-2.546h-.057a1.05 1.05 0 0 1-.96-.687 1.05 1.05 0 0 1 .21-1.158l.037-.038a1.272 1.272 0 1 0-1.8-1.801l-.039.038a1.05 1.05 0 0 1-1.158.21h-.05a1.05 1.05 0 0 1-.637-.961v-.108a1.273 1.273 0 0 0-2.546 0v.057a1.05 1.05 0 0 1-.636.96 1.05 1.05 0 0 1-1.158-.21l-.038-.037a1.273 1.273 0 1 0-1.801 1.8l.038.039a1.05 1.05 0 0 1 .21 1.158v.05a1.05 1.05 0 0 1-.961.637h-.108a1.273 1.273 0 0 0 0 2.546h.057a1.05 1.05 0 0 1 .96.636Z"></path><path d="M8 10a2 2 0 1 1 0-4 2 2 0 0 1 0 4Z"></path></g><defs><clipPath id="options_svg__a"><path fill="currentColor" d="M0 0h16v16H0z"></path></clipPath></defs></svg>
<svg xmlns="http://www.w3.org/2000/svg" width="16" height="16" fill="none"><path d="M8 2v10M8 2 3 7m5-5 5 5" stroke="#fff" stroke-width="1.5" stroke-linecap="round" stroke-linejoin="round"></path><path opacity="0.4" d="M14 15H2v-3h12v3Z" fill="#fff" stroke="#fff" stroke-width="1.5" stroke-linecap="round" stroke-linejoin="round"></path></svg>
<svg xmlns="http://www.w3.org/2000/svg" width="16" height="16" fill="none"><path d="M6 1h8v10H6V1Z" stroke="#C7CAD1" stroke-width="1.5" stroke-linecap="round" stroke-linejoin="round"></path><path opacity="0.4" d="M2 15h8v-4H6V5H2v10Z" fill="#C7CAD1" stroke="#C7CAD1" stroke-width="1.5" stroke-linecap="round" stroke-linejoin="round"></path></svg>
<svg xmlns="http://www.w3.org/2000/svg" width="16" height="16" fill="none"><path d="M8 12V2m0 10 5-5m-5 5L3 7" stroke="#C7CAD1" stroke-width="1.5" stroke-linecap="round" stroke-linejoin="round"></path><path opacity="0.4" d="M2 15h12v-3H2v3Z" fill="#C7CAD1" stroke="#C7CAD1" stroke-width="1.5" stroke-linecap="round" stroke-linejoin="round"></path></svg>
<svg xmlns="http://www.w3.org/2000/svg" width="16" height="16" fill="none"><path opacity="0.4" d="M13 15H3V9h10v6Z" fill="#6E7687"></path><path d="M5 10a5 5 0 0 1 5-5h2m0 0-2 2m2-2-2-2" stroke="#6E7687" stroke-width="1.5" stroke-linecap="round" stroke-linejoin="round"></path></svg>
<svg xmlns="http://www.w3.org/2000/svg" width="16" height="16" fill="none"><path d="M13 8H3" stroke="#2E3138" stroke-width="1.5" stroke-linecap="round" stroke-linejoin="round"></path></svg>
<svg xmlns="http://www.w3.org/2000/svg" width="16" height="16" fill="none"><path d="M8 3v5m0 5V8m0 0h5M8 8H3" stroke="#2E3138" stroke-width="1.5" stroke-linecap="round" stroke-linejoin="round"></path></svg>
<svg xmlns="http://www.w3.org/2000/svg" width="24" height="24" viewBox="0 0 26 26" fill="none"><g clip-path="url(#checkerboard_svg__a)"><rect width="24" height="24" rx="4" fill="#fff"></rect><path fill="#C7CAD1" d="M0 0h11v11H0zM11 11h10v10H11zM21 21h11v11H21zM21 0h11v11H21zM0 21h11v11H0z"></path></g><defs><clipPath id="checkerboard_svg__a"><rect x="1" y="1" width="24" height="24" rx="4" fill="#fff"></rect></clipPath></defs></svg>
<svg xmlns="http://www.w3.org/2000/svg" width="16" height="16" fill="none"><path d="M8 12V2m0 10 5-5m-5 5L3 7" stroke="#fff" stroke-width="1.5" stroke-linecap="round" stroke-linejoin="round"></path><path opacity="0.4" d="M2 15h12v-3H2v3Z" fill="#fff" stroke="#fff" stroke-width="1.5" stroke-linecap="round" stroke-linejoin="round"></path></svg>
<svg xmlns="http://www.w3.org/2000/svg" width="24" height="24" viewBox="0 0 124 124" fill="none"><rect width="124" height="124" rx="24" fill="#F97316"></rect><path d="M19.375 36.782v63.843a4 4 0 0 0 4 4h63.843c3.564 0 5.348-4.309 2.829-6.828L26.203 33.953c-2.52-2.52-6.828-.735-6.828 2.829Z" fill="#fff"></path><circle cx="63.211" cy="37.539" r="18.164" fill="#000"></circle><rect opacity="0.4" x="81.133" y="80.72" width="17.569" height="17.388" rx="4" transform="rotate(-45 81.133 80.72)" fill="#FDBA74"></rect></svg>
<svg width="32" height="32" fill="none" xmlns="http://www.w3.org/2000/svg" transform="scale(-1 1)"><path d="M17 21a5 5 0 1 0-5-5v2m0 0 2-2m-2 2-2-2" stroke="#C7CAD1" stroke-width="1.5" stroke-linecap="round" stroke-linejoin="round"></path></svg>
<svg width="32" height="32" fill="none" xmlns="http://www.w3.org/2000/svg"><path opacity="0.4" d="M21 22V10l-10 6 10 6Z" fill="#C7CAD1" stroke="#C7CAD1" stroke-width="1.5" stroke-linecap="round" stroke-linejoin="round"></path><path d="M9 16h14" stroke="#C7CAD1" stroke-width="1.5" stroke-linecap="round" stroke-linejoin="round"></path></svg>
<svg width="16" height="16" fill="none" xmlns="http://www.w3.org/2000/svg"><path opacity="0.4" d="M2 13h12L8 3 2 13Z" fill="#C7CAD1" stroke="#C7CAD1" stroke-width="1.5" stroke-linecap="round" stroke-linejoin="round"></path><path d="M8 1v14" stroke="#C7CAD1" stroke-width="1.5" stroke-linecap="round" stroke-linejoin="round"></path></svg>
<svg width="16" height="16" fill="none" xmlns="http://www.w3.org/2000/svg"><g clip-path="url(#resize_svg__a)" stroke="#C7CAD1" stroke-width="1.5" stroke-linecap="round" stroke-linejoin="round"><path opacity="0.4" d="M4 4h8v8H4V4Z" fill="#C7CAD1"></path><path d="M4 4h8v8M4 4v8h8M4 4V1m0 3H1m11 8h3m-3 0v3"></path></g><defs><clipPath id="resize_svg__a"><path fill="#fff" d="M0 0h16v16H0z"></path></clipPath></defs></svg>
<svg width="17" height="13" fill="none" xmlns="http://www.w3.org/2000/svg"><path d="M9.118 1.5 14 6.5l-4.882 5M14 6.5H1" stroke="#00B277" stroke-width="2"></path></svg>
<svg width="16" height="16" fill="none" xmlns="http://www.w3.org/2000/svg"><g stroke="currentColor" stroke-width="1.5" stroke-linecap="round" stroke-linejoin="round" clip-path="url(#options_svg__a)"><path d="M3.29 9.91a1.05 1.05 0 0 1-.21 1.157l-.037.038a1.272 1.272 0 1 0 1.8 1.801l.039-.038a1.05 1.05 0 0 1 1.158-.21 1.05 1.05 0 0 1 .636.961v.108a1.273 1.273 0 0 0 2.546 0v-.057a1.05 1.05 0 0 1 .687-.96 1.05 1.05 0 0 1 1.158.21l.038.037a1.272 1.272 0 0 0 2.175-.9 1.272 1.272 0 0 0-.374-.9l-.038-.039a1.05 1.05 0 0 1-.21-1.158 1.05 1.05 0 0 1 .961-.636h.108a1.273 1.273 0 0 0 0-2.546h-.057a1.05 1.05 0 0 1-.96-.687 1.05 1.05 0 0 1 .21-1.158l.037-.038a1.272 1.272 0 1 0-1.8-1.801l-.039.038a1.05 1.05 0 0 1-1.158.21h-.05a1.05 1.05 0 0 1-.637-.961v-.108a1.273 1.273 0 0 0-2.546 0v.057a1.05 1.05 0 0 1-.636.96 1.05 1.05 0 0 1-1.158-.21l-.038-.037a1.273 1.273 0 1 0-1.801 1.8l.038.039a1.05 1.05 0 0 1 .21 1.158v.05a1.05 1.05 0 0 1-.961.637h-.108a1.273 1.273 0 0 0 0 2.546h.057a1.05 1.05 0 0 1 .96.636Z"></path><path d="M8 10a2 2 0 1 1 0-4 2 2 0 0 1 0 4Z"></path></g><defs><clipPath id="options_svg__a"><path fill="currentColor" d="M0 0h16v16H0z"></path></clipPath></defs></svg>
<svg xmlns="http://www.w3.org/2000/svg" width="16" height="16" fill="none"><path d="M8 2v10M8 2 3 7m5-5 5 5" stroke="#fff" stroke-width="1.5" stroke-linecap="round" stroke-linejoin="round"></path><path opacity="0.4" d="M14 15H2v-3h12v3Z" fill="#fff" stroke="#fff" stroke-width="1.5" stroke-linecap="round" stroke-linejoin="round"></path></svg>
<svg xmlns="http://www.w3.org/2000/svg" width="16" height="16" fill="none"><path d="M6 1h8v10H6V1Z" stroke="#C7CAD1" stroke-width="1.5" stroke-linecap="round" stroke-linejoin="round"></path><path opacity="0.4" d="M2 15h8v-4H6V5H2v10Z" fill="#C7CAD1" stroke="#C7CAD1" stroke-width="1.5" stroke-linecap="round" stroke-linejoin="round"></path></svg>
<svg xmlns="http://www.w3.org/2000/svg" width="16" height="16" fill="none"><path d="M8 12V2m0 10 5-5m-5 5L3 7" stroke="#C7CAD1" stroke-width="1.5" stroke-linecap="round" stroke-linejoin="round"></path><path opacity="0.4" d="M2 15h12v-3H2v3Z" fill="#C7CAD1" stroke="#C7CAD1" stroke-width="1.5" stroke-linecap="round" stroke-linejoin="round"></path></svg>
<svg xmlns="http://www.w3.org/2000/svg" width="16" height="16" fill="none"><path opacity="0.4" d="M13 15H3V9h10v6Z" fill="#6E7687"></path><path d="M5 10a5 5 0 0 1 5-5h2m0 0-2 2m2-2-2-2" stroke="#6E7687" stroke-width="1.5" stroke-linecap="round" stroke-linejoin="round"></path></svg>
<svg xmlns="http://www.w3.org/2000/svg" width="16" height="16" fill="none"><path d="M13 8H3" stroke="#2E3138" stroke-width="1.5" stroke-linecap="round" stroke-linejoin="round"></path></svg>
<svg xmlns="http://www.w3.org/2000/svg" width="16" height="16" fill="none"><path d="M8 3v5m0 5V8m0 0h5M8 8H3" stroke="#2E3138" stroke-width="1.5" stroke-linecap="round" stroke-linejoin="round"></path></svg>
<svg xmlns="http://www.w3.org/2000/svg" width="24" height="24" viewBox="0 0 26 26" fill="none"><g clip-path="url(#checkerboard_svg__a)"><rect width="24" height="24" rx="4" fill="#fff"></rect><path fill="#C7CAD1" d="M0 0h11v11H0zM11 11h10v10H11zM21 21h11v11H21zM21 0h11v11H21zM0 21h11v11H0z"></path></g><defs><clipPath id="checkerboard_svg__a"><rect x="1" y="1" width="24" height="24" rx="4" fill="#fff"></rect></clipPath></defs></svg>
<svg xmlns="http://www.w3.org/2000/svg" width="16" height="16" fill="none"><path d="M8 12V2m0 10 5-5m-5 5L3 7" stroke="#fff" stroke-width="1.5" stroke-linecap="round" stroke-linejoin="round"></path><path opacity="0.4" d="M2 15h12v-3H2v3Z" fill="#fff" stroke="#fff" stroke-width="1.5" stroke-linecap="round" stroke-linejoin="round"></path></svg>
